<svg width="27" height="25" viewBox="0 0 27 25" fill="none" xmlns="http://www.w3.org/2000/svg">
<path d="M25.984 8.80321L17.9343 7.66263L14.3359 0.550211C14.2376 0.355478 14.0759 0.197836 13.8762 0.102015C13.3753 -0.139084 12.7665 0.0618317 12.5161 0.550211L8.91767 7.66263L0.868008 8.80321C0.646079 8.83412 0.443173 8.93612 0.287823 9.09068C0.100014 9.27888 -0.00347765 9.53207 8.9234e-05 9.79463C0.00365611 10.0572 0.11399 10.3076 0.306846 10.4909L6.13088 16.0269L4.75493 23.8441C4.72266 24.0259 4.7433 24.2129 4.8145 24.3839C4.88571 24.5549 5.00463 24.703 5.15779 24.8115C5.31094 24.9199 5.4922 24.9844 5.681 24.9975C5.86981 25.0106 6.05861 24.9719 6.226 24.8857L13.426 21.1951L20.626 24.8857C20.8225 24.9877 21.0508 25.0217 21.2696 24.9847C21.8212 24.8919 22.1922 24.3819 22.0971 23.8441L20.7211 16.0269L26.5451 10.4909C26.7037 10.3394 26.8083 10.1416 26.84 9.92525C26.9256 9.38432 26.5388 8.88358 25.984 8.80321Z" fill="#B7B7B7"/>
</svg>
