<svg width="80" height="80" viewBox="0 0 80 80" fill="none" xmlns="http://www.w3.org/2000/svg">
<path d="M57.9313 78.6206H22.0691C20.5451 78.6206 19.3105 77.386 19.3105 75.862C19.3105 74.3379 20.5451 73.1034 22.0691 73.1034H57.9312C59.4552 73.1034 60.6898 74.3379 60.6898 75.862C60.6899 77.3862 59.4554 78.6206 57.9313 78.6206Z" fill="#E7ECED"/>
<path d="M46.8967 62.069V59.3104H33.1036V62.069C33.1036 68.1683 30.927 73.1035 24.8276 73.1035H55.1725C49.0733 73.1035 46.8967 68.1683 46.8967 62.069Z" fill="#AFB6BB"/>
<path d="M75.8606 62.0689H4.13938C1.85375 62.0689 0 60.2152 0 57.9297V49.6552H80V57.9297C80 60.2152 78.1462 62.0689 75.8606 62.0689Z" fill="#E7ECED"/>
<path d="M44.1382 57.9311H35.8623C35.1009 57.9311 34.4829 57.3131 34.4829 56.5517C34.4829 55.7903 35.1009 55.1723 35.8623 55.1723H44.1382C44.8996 55.1723 45.5176 55.7903 45.5176 56.5517C45.5176 57.3131 44.8996 57.9311 44.1382 57.9311Z" fill="#AFB6BB"/>
<path d="M68.9655 1.37935H11.0345H4.13938C1.85375 1.37935 0 3.2331 0 5.51857V51.0345H11.0345H31.7242H48.2759H68.9656H80V5.51857C80 3.2331 78.1462 1.3792 75.8606 1.3792H68.9655V1.37935Z" fill="url(#paint0_linear)"/>
<path d="M74.4826 6.89656H37.2412V51.0345H74.4826V6.89656Z" fill="url(#paint1_linear)"/>
<path d="M39.9999 6.89656H5.51709V51.0345H39.9999V6.89656Z" fill="url(#paint2_linear)"/>
<path d="M20.6882 46.8966C20.4813 46.8966 20.2702 46.8497 20.0716 46.7517C19.3902 46.4111 19.1144 45.582 19.455 44.9006L23.593 36.6248C23.9336 35.9434 24.7641 35.6677 25.4441 36.0083C26.1255 36.3489 26.4013 37.178 26.0607 37.8594L21.9227 46.1352C21.6813 46.618 21.1944 46.8966 20.6882 46.8966Z" fill="white"/>
<path d="M11.0345 42.7586C10.6813 42.7586 10.3282 42.6234 10.0593 42.3545C9.51994 41.8151 9.51994 40.9434 10.0593 40.4042L14.1973 36.2662C14.7353 35.7269 15.6096 35.7269 16.1476 36.2662C16.687 36.8056 16.687 37.6773 16.1476 38.2165L12.0096 42.3545C11.7406 42.6234 11.3876 42.7586 11.0345 42.7586Z" fill="white"/>
<path d="M15.1723 46.8965C14.8192 46.8965 14.466 46.7614 14.1971 46.4925L10.0593 42.3545C9.51994 41.8151 9.51994 40.9434 10.0593 40.4042C10.5973 39.8648 11.4717 39.8648 12.0096 40.4042L16.1476 44.5421C16.687 45.0815 16.687 45.9532 16.1476 46.4925C15.8785 46.7614 15.5254 46.8965 15.1723 46.8965Z" fill="white"/>
<path d="M34.483 42.7586C34.1299 42.7586 33.7767 42.6234 33.5078 42.3545L29.3699 38.2165C28.8305 37.6772 28.8305 36.8054 29.3699 36.2662C29.9078 35.7269 30.7822 35.7269 31.3202 36.2662L35.4581 40.4042C35.9975 40.9436 35.9975 41.8153 35.4581 42.3545C35.1891 42.6234 34.8361 42.7586 34.483 42.7586Z" fill="white"/>
<path d="M30.345 46.8965C29.9919 46.8965 29.6388 46.7614 29.3699 46.4925C28.8305 45.9531 28.8305 45.0814 29.3699 44.5421L33.5078 40.4042C34.0458 39.8648 34.9202 39.8648 35.4581 40.4042C35.9975 40.9435 35.9975 41.8153 35.4581 42.3545L31.3202 46.4925C31.0513 46.7614 30.6981 46.8965 30.345 46.8965Z" fill="white"/>
<path d="M23.4482 23.4483C22.6868 23.4483 22.0688 22.8303 22.0688 22.0689V12.4138C22.0688 11.6523 22.6868 11.0344 23.4482 11.0344C24.2096 11.0344 24.8276 11.6523 24.8276 12.4138V22.0689C24.8276 22.8303 24.2096 23.4483 23.4482 23.4483Z" fill="white"/>
<path d="M23.4482 31.724C22.6868 31.724 22.0688 31.1061 22.0688 30.3447V27.5861C22.0688 26.8247 22.6868 26.2067 23.4482 26.2067C24.2096 26.2067 24.8276 26.8247 24.8276 27.5861V30.3447C24.8276 31.1062 24.2096 31.724 23.4482 31.724Z" fill="white"/>
<path d="M59.3102 13.7931H45.5171C44.7557 13.7931 44.1377 13.1752 44.1377 12.4138C44.1377 11.6523 44.7557 11.0344 45.5171 11.0344H59.3102C60.0716 11.0344 60.6896 11.6523 60.6896 12.4138C60.6896 13.1752 60.0716 13.7931 59.3102 13.7931Z" fill="#DD352E"/>
<path d="M68.9656 13.7931H64.8276C64.0662 13.7931 63.4482 13.1752 63.4482 12.4138C63.4482 11.6523 64.0662 11.0344 64.8276 11.0344H68.9656C69.727 11.0344 70.345 11.6523 70.345 12.4138C70.345 13.1752 69.727 13.7931 68.9656 13.7931Z" fill="#366DB6"/>
<path d="M68.9655 19.3103H55.1723C54.4109 19.3103 53.793 18.6923 53.793 17.9309C53.793 17.1695 54.4109 16.5516 55.1723 16.5516H68.9655C69.7269 16.5516 70.3448 17.1695 70.3448 17.9309C70.3448 18.6923 69.7269 19.3103 68.9655 19.3103Z" fill="#75348B"/>
<path d="M49.655 19.3103H45.5171C44.7557 19.3103 44.1377 18.6923 44.1377 17.9309C44.1377 17.1695 44.7557 16.5516 45.5171 16.5516H49.655C50.4164 16.5516 51.0344 17.1695 51.0344 17.9309C51.0344 18.6923 50.4164 19.3103 49.655 19.3103Z" fill="#57ABC1"/>
<path d="M59.3102 24.8277H45.5171C44.7557 24.8277 44.1377 24.2097 44.1377 23.4483C44.1377 22.6869 44.7557 22.0689 45.5171 22.0689H59.3102C60.0716 22.0689 60.6896 22.6869 60.6896 23.4483C60.6896 24.2097 60.0716 24.8277 59.3102 24.8277Z" fill="#25AE88"/>
<path d="M68.9656 24.8277H64.8276C64.0662 24.8277 63.4482 24.2097 63.4482 23.4483C63.4482 22.6869 64.0662 22.0689 64.8276 22.0689H68.9656C69.727 22.0689 70.345 22.6869 70.345 23.4483C70.345 24.2097 69.727 24.8277 68.9656 24.8277Z" fill="#F76363"/>
<path d="M68.9655 30.3448H55.1723C54.4109 30.3448 53.793 29.7268 53.793 28.9654C53.793 28.204 54.4109 27.5861 55.1723 27.5861H68.9655C69.7269 27.5861 70.3448 28.204 70.3448 28.9654C70.3448 29.7268 69.7269 30.3448 68.9655 30.3448Z" fill="#BF5A45"/>
<path d="M49.655 30.3448H45.5171C44.7557 30.3448 44.1377 29.7268 44.1377 28.9654C44.1377 28.204 44.7557 27.5861 45.5171 27.5861H49.655C50.4164 27.5861 51.0344 28.204 51.0344 28.9654C51.0344 29.7268 50.4164 30.3448 49.655 30.3448Z" fill="#F2ECBF"/>
<path d="M68.9655 46.8966H55.1723C54.4109 46.8966 53.793 46.2786 53.793 45.5172C53.793 44.7558 54.4109 44.1379 55.1723 44.1379H68.9655C69.7269 44.1379 70.3448 44.7558 70.3448 45.5172C70.3448 46.2786 69.7269 46.8966 68.9655 46.8966Z" fill="#25AE88"/>
<path d="M49.655 46.8966H45.5171C44.7557 46.8966 44.1377 46.2786 44.1377 45.5172C44.1377 44.7558 44.7557 44.1379 45.5171 44.1379H49.655C50.4164 44.1379 51.0344 44.7558 51.0344 45.5172C51.0344 46.2786 50.4164 46.8966 49.655 46.8966Z" fill="#DD352E"/>
<path d="M59.3102 35.8621H45.5171C44.7557 35.8621 44.1377 35.2441 44.1377 34.4827C44.1377 33.7213 44.7557 33.1033 45.5171 33.1033H59.3102C60.0716 33.1033 60.6896 33.7213 60.6896 34.4827C60.6896 35.2441 60.0716 35.8621 59.3102 35.8621Z" fill="#75348B"/>
<path d="M68.9656 35.8621H64.8276C64.0662 35.8621 63.4482 35.2441 63.4482 34.4827C63.4482 33.7213 64.0662 33.1033 64.8276 33.1033H68.9656C69.727 33.1033 70.345 33.7213 70.345 34.4827C70.345 35.2441 69.727 35.8621 68.9656 35.8621Z" fill="#EBBA16"/>
<path d="M68.9655 41.3794H55.1723C54.4109 41.3794 53.793 40.7614 53.793 40C53.793 39.2386 54.4109 38.6206 55.1723 38.6206H68.9655C69.7269 38.6206 70.3448 39.2386 70.3448 40C70.3448 40.7614 69.7269 41.3794 68.9655 41.3794Z" fill="#ED8A19"/>
<path d="M49.655 41.3794H45.5171C44.7557 41.3794 44.1377 40.7614 44.1377 40C44.1377 39.2386 44.7557 38.6206 45.5171 38.6206H49.655C50.4164 38.6206 51.0344 39.2386 51.0344 40C51.0344 40.7614 50.4164 41.3794 49.655 41.3794Z" fill="#C5411E"/>
<defs>
<linearGradient id="paint0_linear" x1="40.0001" y1="65.8818" x2="40.0001" y2="13.1816" gradientUnits="userSpaceOnUse">
<stop stop-color="#0085F2"/>
<stop offset="1" stop-color="#003286"/>
</linearGradient>
<linearGradient id="paint1_linear" x1="73.999" y1="29" x2="41.499" y2="29" gradientUnits="userSpaceOnUse">
<stop stop-color="#28384C"/>
<stop offset="1" stop-color="#5993DB"/>
</linearGradient>
<linearGradient id="paint2_linear" x1="39.9995" y1="28.9657" x2="5.5167" y2="28.9657" gradientUnits="userSpaceOnUse">
<stop offset="2e-06" stop-color="#3BADEA"/>
<stop offset="1" stop-color="#4AFFC7"/>
</linearGradient>
</defs>
</svg>
