<svg width="118" height="90" viewBox="0 0 118 90" fill="none" xmlns="http://www.w3.org/2000/svg">
<g clip-path="url(#clip0)">
<path fill-rule="evenodd" clip-rule="evenodd" d="M117.299 39.785C108.793 -0.953159 66.31 -4.52035 31 3.3965C52.3112 21.8323 72.0536 30.8556 88.3348 19.1668C74.6509 22.2502 61.1136 24.3662 50.3427 8.08767C72.8338 -2.94927 116.982 13.9132 115.474 45.077L113.344 44.1106L115.261 46.8287C114.995 48.1304 114.499 49.1982 113.82 50.0313C113.76 50.0291 113.699 50.0281 113.634 50.0281C112.599 49.2784 112.764 47.3733 113.228 45.1783C112.061 47.4172 111.416 49.5735 111.847 51.5732C105.464 54.5571 102.485 48.1083 101.517 44.7439C101.16 46.468 102.371 50.2715 102.371 50.2715C98.2637 48.0342 93.7278 43.8181 89.6027 37.4763C91.4627 44.1242 96.8671 49.2089 102.451 51.6167C107.06 53.2902 109.037 52.8707 110.012 52.8505C115.261 52.7368 118.956 47.7184 117.299 39.785ZM106.181 33.8412C104.685 37.1955 105.38 39.9783 107.579 42.3644C106.133 39.6813 105.784 37.3271 106.529 35.2962C107.8 35.1835 108.733 35.4675 109.384 36.0988C109.05 36.0641 108.72 36.1122 108.425 36.2304C108.821 36.3893 109.063 36.713 109 37.0207C108.92 37.3863 108.439 37.5946 107.92 37.4857C107.711 37.4415 107.526 37.3521 107.386 37.2358C107.34 37.3463 107.304 37.4597 107.277 37.5819C107.06 38.6064 107.741 39.6202 108.802 39.8431C109.472 39.9838 110.134 39.7772 110.58 39.3431C110.67 40.4511 110.612 41.7642 110.442 43.2648C113.278 37.1988 112.425 33.6683 106.181 33.8412Z" fill="#BFBFBF"/>
<path fill-rule="evenodd" clip-rule="evenodd" d="M82.0966 26.9775C69.5292 19.5403 53.0255 19.0298 39.4557 25.5484C33.545 8.1485 10.7264 21.6524 22.3381 33.5293C17.878 36.445 13.4988 41.375 11.0669 53.4618C17.4461 36.9886 25.2577 34.0827 26.5529 34.6484C20.1048 22.6568 34.2449 18.531 38.566 29.2105C52.9309 21.0818 69.8613 20.3481 82.2081 27.8568L82.0966 26.9775Z" fill="#BFBFBF"/>
<path d="M2.27491 61.562C4.89945 61.8668 4.98686 61.9119 4.98686 64.5797V71.0077C4.98686 73.9845 4.89945 77.3099 4.63658 80.8511C4.50465 82.5158 4.24275 83.4769 3.93666 83.8698C3.63056 84.2643 2.27491 84.3081 1.18148 84.3081C0.394152 84.3081 0 84.7452 0 85.6219C0 87.0636 1.13729 88.2 1.794 88.2C2.14331 88.2 2.53811 88.0697 2.79904 87.8961C5.16168 86.4524 8.79289 83.3876 10.542 79.3651C11.5039 77.0906 11.8555 75.2082 11.8555 71.4496V58.5004C8.48712 59.1116 5.0746 59.7251 2.27491 60.0731V61.562Z" fill="#BFBFBF"/>
<path d="M26.422 77.0463C24.19 77.0463 23.0527 72.1472 23.0527 66.8988C23.0527 62.7857 24.19 60.5998 25.5463 60.5998C27.3852 60.5998 28.7847 63.3995 28.7847 71.2289C28.7847 75.9094 27.558 77.0463 26.422 77.0463ZM26.1585 58.5004C20.7785 58.5004 15.3984 62.2177 15.3984 69.2591C15.3984 74.245 18.9871 79.1451 25.8521 79.1451C31.2338 79.1451 36.4396 75.603 36.4396 68.6041C36.4396 63.0486 32.633 58.5004 26.1585 58.5004Z" fill="#BFBFBF"/>
<path d="M49.9998 77.0463C47.7665 77.0463 46.6302 72.1472 46.6302 66.8988C46.6302 62.7857 47.7665 60.5998 49.1238 60.5998C50.962 60.5998 52.3618 63.3995 52.3618 71.2289C52.3618 75.9094 51.1358 77.0463 49.9998 77.0463ZM49.7363 58.5004C44.355 58.5004 38.9746 62.2177 38.9746 69.2591C38.9746 74.245 42.5633 79.1451 49.4312 79.1451C54.8112 79.1451 60.0158 75.603 60.0158 68.6041C60.0158 63.0486 56.2101 58.5004 49.7363 58.5004Z" fill="#BFBFBF"/>
<path d="M72.8323 76.918C72.0024 76.918 71.3009 76.4774 70.9071 75.383C70.7751 74.9911 70.6435 74.245 70.6435 73.5474V61.9974C70.9961 61.8242 71.4318 61.7348 71.8695 61.7348C73.7942 61.7348 76.4635 63.0486 76.4635 69.6972C76.4635 74.336 74.9318 76.918 72.8323 76.918ZM74.7557 58.5004C73.6635 58.5004 72.9191 58.9387 72.1318 59.3306L70.6435 60.0305V47.8257C66.9275 48.4379 63.4718 49.0498 61.0649 49.3582V50.9315C63.6911 51.108 63.7785 51.1499 63.7785 53.7319V77.4418C66.5337 78.6233 69.027 79.1451 71.6934 79.1451C78.7823 79.1451 83.9005 74.4225 83.9005 67.9038C83.9005 62.7438 80.138 58.5004 74.7557 58.5004Z" fill="#BFBFBF"/>
<path d="M94.8781 73.9432V47.8257C91.1604 48.4379 87.705 49.0498 85.2998 49.3582V50.9315C87.9234 51.108 88.0114 51.1499 88.0114 53.7319V73.9432C88.0114 76.4355 87.7921 76.6499 85.4743 76.918V78.6233H97.4165V76.918C95.0981 76.6499 94.8781 76.4355 94.8781 73.9432Z" fill="#BFBFBF"/>
<path d="M107.87 60.7746C108.962 60.7746 110.32 62.8737 110.32 64.8C110.32 65.5395 110.145 65.6738 109.401 65.7176L105.508 65.8489C105.552 62.2177 106.907 60.7746 107.87 60.7746ZM110.932 74.4631C108.484 74.4631 105.508 72.1043 105.421 68.1673C109.62 67.9906 114.913 67.5542 115.568 67.4236C116.487 67.2455 116.663 67.1597 116.663 65.6738C116.663 61.562 112.9 58.5004 109.401 58.5004C103.496 58.5004 98.772 63.4879 98.772 69.4808C98.772 74.9482 102.578 79.1451 108.746 79.1451C110.232 79.1451 113.82 78.1849 116.577 74.2041L115.744 72.8026C113.952 73.896 112.596 74.4631 110.932 74.4631Z" fill="#BFBFBF"/>
</g>
<defs>
<clipPath id="clip0">
<rect width="117.764" height="90" fill="white"/>
</clipPath>
</defs>
</svg>
