<svg width="102" height="14" viewBox="0 0 102 14" fill="none" xmlns="http://www.w3.org/2000/svg">
<path d="M8.168 13L5.752 9.56C5.45333 9.58133 5.21867 9.592 5.048 9.592H2.28V13H0.68V1.8H5.048C6.49867 1.8 7.64 2.14667 8.472 2.84C9.304 3.53333 9.72 4.488 9.72 5.704C9.72 6.568 9.50667 7.304 9.08 7.912C8.65333 8.52 8.04533 8.96267 7.256 9.24L9.912 13H8.168ZM5 8.232C6.01333 8.232 6.78667 8.01333 7.32 7.576C7.85333 7.13867 8.12 6.51467 8.12 5.704C8.12 4.89333 7.85333 4.27467 7.32 3.848C6.78667 3.41067 6.01333 3.192 5 3.192H2.28V8.232H5ZM19.745 8.808C19.745 8.92533 19.7343 9.08 19.713 9.272H12.833C12.929 10.0187 13.2543 10.6213 13.809 11.08C14.3743 11.528 15.073 11.752 15.905 11.752C16.9183 11.752 17.7343 11.4107 18.353 10.728L19.201 11.72C18.817 12.168 18.337 12.5093 17.761 12.744C17.1957 12.9787 16.561 13.096 15.857 13.096C14.961 13.096 14.1663 12.9147 13.473 12.552C12.7797 12.1787 12.241 11.6613 11.857 11C11.4837 10.3387 11.297 9.592 11.297 8.76C11.297 7.93867 11.4783 7.19733 11.841 6.536C12.2143 5.87467 12.721 5.36267 13.361 5C14.0117 4.62667 14.7423 4.44 15.553 4.44C16.3637 4.44 17.0837 4.62667 17.713 5C18.353 5.36267 18.849 5.87467 19.201 6.536C19.5637 7.19733 19.745 7.95467 19.745 8.808ZM15.553 5.736C14.817 5.736 14.1983 5.96 13.697 6.408C13.2063 6.856 12.9183 7.44267 12.833 8.168H18.273C18.1877 7.45333 17.8943 6.872 17.393 6.424C16.9023 5.96533 16.289 5.736 15.553 5.736ZM25.5739 13.096C24.7099 13.096 23.9365 12.9093 23.2539 12.536C22.5819 12.1627 22.0539 11.6507 21.6699 11C21.2859 10.3387 21.0939 9.592 21.0939 8.76C21.0939 7.928 21.2859 7.18667 21.6699 6.536C22.0539 5.87467 22.5819 5.36267 23.2539 5C23.9365 4.62667 24.7099 4.44 25.5739 4.44C26.3419 4.44 27.0245 4.59467 27.6219 4.904C28.2299 5.21333 28.6992 5.66133 29.0299 6.248L27.8619 7C27.5952 6.59467 27.2645 6.29067 26.8699 6.088C26.4752 5.88533 26.0379 5.784 25.5579 5.784C25.0032 5.784 24.5019 5.90667 24.0539 6.152C23.6165 6.39733 23.2699 6.74933 23.0139 7.208C22.7685 7.656 22.6459 8.17333 22.6459 8.76C22.6459 9.35733 22.7685 9.88533 23.0139 10.344C23.2699 10.792 23.6165 11.1387 24.0539 11.384C24.5019 11.6293 25.0032 11.752 25.5579 11.752C26.0379 11.752 26.4752 11.6507 26.8699 11.448C27.2645 11.2453 27.5952 10.9413 27.8619 10.536L29.0299 11.272C28.6992 11.8587 28.2299 12.312 27.6219 12.632C27.0245 12.9413 26.3419 13.096 25.5739 13.096ZM32.4905 5.944C32.7572 5.45333 33.1518 5.08 33.6745 4.824C34.1972 4.568 34.8318 4.44 35.5785 4.44V5.928C35.4932 5.91733 35.3758 5.912 35.2265 5.912C34.3945 5.912 33.7385 6.16267 33.2585 6.664C32.7892 7.15467 32.5545 7.85867 32.5545 8.776V13H31.0185V4.52H32.4905V5.944ZM45.485 4.52V13H44.029V11.72C43.7197 12.1573 43.309 12.4987 42.797 12.744C42.2957 12.9787 41.7463 13.096 41.149 13.096C40.0183 13.096 39.1277 12.7867 38.477 12.168C37.8263 11.5387 37.501 10.616 37.501 9.4V4.52H39.037V9.224C39.037 10.0453 39.2343 10.6693 39.629 11.096C40.0237 11.512 40.589 11.72 41.325 11.72C42.1357 11.72 42.7757 11.4747 43.245 10.984C43.7143 10.4933 43.949 9.8 43.949 8.904V4.52H45.485ZM48.4091 4.52H49.9451V13H48.4091V4.52ZM49.1771 2.888C48.8785 2.888 48.6278 2.792 48.4251 2.6C48.2331 2.408 48.1371 2.17333 48.1371 1.896C48.1371 1.61867 48.2331 1.384 48.4251 1.192C48.6278 0.989333 48.8785 0.888 49.1771 0.888C49.4758 0.888 49.7211 0.984 49.9131 1.176C50.1158 1.35733 50.2171 1.58667 50.2171 1.864C50.2171 2.152 50.1158 2.39733 49.9131 2.6C49.7211 2.792 49.4758 2.888 49.1771 2.888ZM57.6459 12.504C57.4219 12.696 57.1445 12.8453 56.8139 12.952C56.4832 13.048 56.1419 13.096 55.7899 13.096C54.9365 13.096 54.2752 12.8667 53.8059 12.408C53.3365 11.9493 53.1019 11.2933 53.1019 10.44V5.784H51.6619V4.52H53.1019V2.664H54.6379V4.52H57.0699V5.784H54.6379V10.376C54.6379 10.8347 54.7499 11.1867 54.9739 11.432C55.2085 11.6773 55.5392 11.8 55.9659 11.8C56.4352 11.8 56.8352 11.6667 57.1659 11.4L57.6459 12.504ZM70.1109 4.44C71.1775 4.44 72.0202 4.74933 72.6389 5.368C73.2682 5.98667 73.5829 6.904 73.5829 8.12V13H72.0469V8.296C72.0469 7.47467 71.8549 6.856 71.4709 6.44C71.0975 6.024 70.5589 5.816 69.8549 5.816C69.0762 5.816 68.4575 6.06133 67.9989 6.552C67.5402 7.032 67.3109 7.72533 67.3109 8.632V13H65.7749V8.296C65.7749 7.47467 65.5829 6.856 65.1989 6.44C64.8255 6.024 64.2869 5.816 63.5829 5.816C62.8042 5.816 62.1855 6.06133 61.7269 6.552C61.2682 7.032 61.0389 7.72533 61.0389 8.632V13H59.5029V4.52H60.9749V5.784C61.2842 5.34667 61.6895 5.016 62.1909 4.792C62.6922 4.55733 63.2629 4.44 63.9029 4.44C64.5642 4.44 65.1509 4.57333 65.6629 4.84C66.1749 5.10667 66.5695 5.496 66.8469 6.008C67.1669 5.51733 67.6095 5.13333 68.1749 4.856C68.7509 4.57867 69.3962 4.44 70.1109 4.44ZM84.12 8.808C84.12 8.92533 84.1093 9.08 84.088 9.272H77.208C77.304 10.0187 77.6293 10.6213 78.184 11.08C78.7493 11.528 79.448 11.752 80.28 11.752C81.2933 11.752 82.1093 11.4107 82.728 10.728L83.576 11.72C83.192 12.168 82.712 12.5093 82.136 12.744C81.5707 12.9787 80.936 13.096 80.232 13.096C79.336 13.096 78.5413 12.9147 77.848 12.552C77.1547 12.1787 76.616 11.6613 76.232 11C75.8587 10.3387 75.672 9.592 75.672 8.76C75.672 7.93867 75.8533 7.19733 76.216 6.536C76.5893 5.87467 77.096 5.36267 77.736 5C78.3867 4.62667 79.1173 4.44 79.928 4.44C80.7387 4.44 81.4587 4.62667 82.088 5C82.728 5.36267 83.224 5.87467 83.576 6.536C83.9387 7.19733 84.12 7.95467 84.12 8.808ZM79.928 5.736C79.192 5.736 78.5733 5.96 78.072 6.408C77.5813 6.856 77.2933 7.44267 77.208 8.168H82.648C82.5627 7.45333 82.2693 6.872 81.768 6.424C81.2773 5.96533 80.664 5.736 79.928 5.736ZM90.7809 4.44C91.8582 4.44 92.7115 4.75467 93.3409 5.384C93.9809 6.00267 94.3009 6.91467 94.3009 8.12V13H92.7649V8.296C92.7649 7.47467 92.5675 6.856 92.1729 6.44C91.7782 6.024 91.2129 5.816 90.4769 5.816C89.6449 5.816 88.9889 6.06133 88.5089 6.552C88.0289 7.032 87.7889 7.72533 87.7889 8.632V13H86.2529V4.52H87.7249V5.8C88.0342 5.36267 88.4502 5.02667 88.9729 4.792C89.5062 4.55733 90.1089 4.44 90.7809 4.44ZM101.912 12.504C101.688 12.696 101.41 12.8453 101.08 12.952C100.749 13.048 100.408 13.096 100.056 13.096C99.2022 13.096 98.5408 12.8667 98.0715 12.408C97.6022 11.9493 97.3675 11.2933 97.3675 10.44V5.784H95.9275V4.52H97.3675V2.664H98.9035V4.52H101.336V5.784H98.9035V10.376C98.9035 10.8347 99.0155 11.1867 99.2395 11.432C99.4742 11.6773 99.8048 11.8 100.232 11.8C100.701 11.8 101.101 11.6667 101.432 11.4L101.912 12.504Z" fill="#111111"/>
</svg>
