<svg width="95" height="700" viewBox="0 0 95 700" fill="none" xmlns="http://www.w3.org/2000/svg">
<path d="M93.8822 665.205L63.7258 682.1L63.7591 686.784L94.0342 686.569L94.1731 706.105L13.9727 706.676L13.7395 673.887C13.6945 667.565 14.7607 662.188 16.938 657.755C19.1148 653.245 22.1375 649.873 26.0062 647.636C29.7986 645.4 34.056 644.266 38.7781 644.232C44.1096 644.194 48.8807 645.684 53.0913 648.7C57.3015 651.641 60.3033 656.037 62.0967 661.889L93.7254 643.156L93.8822 665.205ZM49.9354 686.883L49.8492 674.773C49.8238 671.193 48.9289 668.533 47.1647 666.794C45.3999 664.979 42.9181 664.082 39.7192 664.105C36.6727 664.127 34.28 665.058 32.5413 666.898C30.802 668.662 29.945 671.334 29.9705 674.914L30.0566 687.024L49.9354 686.883ZM60.3129 571.718C62.1408 571.705 64.0457 571.806 66.0276 572.021L66.3421 616.234C70.3004 615.901 73.338 614.622 75.4549 612.399C77.4951 610.099 78.5035 607.312 78.4802 604.037C78.4455 599.162 76.365 595.787 72.2386 593.913L72.0907 573.12C76.2873 574.156 80.0712 576.072 83.4425 578.866C86.8132 581.584 89.4655 585.031 91.3994 589.206C93.3333 593.382 94.3186 598.059 94.3555 603.238C94.3999 609.484 93.1066 615.053 90.4755 619.947C87.8445 624.84 84.0634 628.675 79.1322 631.452C74.2011 634.229 68.4224 635.642 61.7961 635.689C55.1699 635.736 49.372 634.444 44.4024 631.814C39.4322 629.107 35.5969 625.326 32.8965 620.47C30.1961 615.615 28.8234 610.026 28.7785 603.705C28.7346 597.535 29.9904 592.042 32.5458 587.226C35.1013 582.409 38.7686 578.651 43.548 575.951C48.3268 573.175 53.9151 571.764 60.3129 571.718ZM55.314 591.748C51.9628 591.772 49.3052 592.933 47.3412 595.232C45.3772 597.531 44.4074 600.394 44.4318 603.822C44.4551 607.097 45.4269 609.87 47.3472 612.141C49.267 614.337 51.9806 615.688 55.4879 616.197L55.314 591.748ZM61.2954 565.289C54.6691 565.336 48.8712 564.045 43.9016 561.414C38.9315 558.708 35.0965 554.965 32.3966 550.185C29.6962 545.33 28.3238 539.779 28.2794 533.534C28.2225 525.537 30.2696 518.857 34.4207 513.496C38.5712 508.059 44.4487 504.475 52.0532 502.745L52.2011 523.538C47.339 525.324 44.9259 528.731 44.9617 533.758C44.9871 537.338 46.4165 540.184 49.2497 542.296C52.0068 544.409 55.9749 545.447 61.154 545.411C66.3331 545.374 70.3241 544.279 73.127 542.126C75.8538 539.974 77.2044 537.108 77.1789 533.529C77.1432 528.502 74.6818 525.13 69.7949 523.413L69.647 502.62C77.123 504.243 83.0128 507.743 87.3164 513.12C91.62 518.497 93.8 525.146 93.8564 533.067C93.9008 539.313 92.6075 544.882 89.9764 549.776C87.3448 554.593 83.5634 558.39 78.6323 561.167C73.7006 563.868 67.9216 565.242 61.2954 565.289ZM39.3871 472.848C35.8673 470.588 33.1051 467.751 31.1005 464.338C29.0197 460.925 27.9644 457.124 27.9346 452.935L48.613 452.788L48.6512 458.158C48.6859 463.032 49.7782 466.681 51.9281 469.103C54.0019 471.525 57.6664 472.718 62.9217 472.681L92.5113 472.47L92.6503 492.006L28.9012 492.46L28.7623 472.923L39.3871 472.848ZM28.1059 380.643L91.8549 380.19L91.9939 399.726L83.3112 399.788C86.1434 401.748 88.4475 404.435 90.2237 407.85C91.9231 411.19 92.7875 414.916 92.8167 419.029C92.8514 423.903 91.8157 428.214 89.7097 431.961C87.5275 435.709 84.3872 438.626 80.289 440.711C76.1908 442.797 71.3617 443.859 65.8018 443.899L28.5577 444.164L28.4195 424.742L63.036 424.496C67.3011 424.466 70.6064 423.338 72.9518 421.112C75.2971 418.887 76.4566 415.908 76.43 412.176C76.4029 408.368 75.201 405.368 72.8242 403.176C70.4474 400.984 67.1264 399.903 62.8613 399.933L28.2448 400.179L28.1059 380.643ZM21.3099 356.833C21.3343 360.26 20.3642 363.085 18.3997 365.308C16.3584 367.455 13.8526 368.539 10.8822 368.561C7.83567 368.582 5.31468 367.534 3.31925 365.415C1.24712 363.221 0.198865 360.41 0.174487 356.983C0.15065 353.632 1.15936 350.883 3.20061 348.736C5.16516 346.513 7.67071 345.39 10.7173 345.369C13.6876 345.348 16.2089 346.434 18.281 348.628C20.2765 350.747 21.2861 353.482 21.3099 356.833ZM27.8671 347.075L91.6162 346.621L91.7551 366.157L28.0061 366.611L27.8671 347.075ZM74.6971 297.051L91.2627 296.933L91.3334 306.873C91.3838 313.956 89.7094 319.49 86.3102 323.475C82.8349 327.46 77.1747 329.481 69.3299 329.537L43.9673 329.717L44.0226 337.486L27.7997 337.601L27.7445 329.833L12.2071 329.943L12.0681 310.407L27.6055 310.297L27.5145 297.501L43.7374 297.386L43.8284 310.181L69.4194 309.999C71.3235 309.986 72.6912 309.519 73.5225 308.599C74.3538 307.679 74.7619 306.153 74.7467 304.02L74.6971 297.051ZM26.1722 205.167C26.1159 197.246 28.4703 190.945 33.2356 186.265C38.0003 181.509 44.6479 179.1 53.1782 179.04L90.4223 178.775L90.5604 198.197L55.944 198.443C51.8312 198.472 48.6782 199.599 46.4852 201.823C44.2154 203.972 43.0941 206.951 43.1212 210.759C43.1483 214.567 44.3121 217.567 46.6128 219.76C48.8367 221.877 52.0051 222.921 56.1179 222.891L90.7343 222.645L90.8725 242.067L56.2561 242.313C52.1432 242.342 48.9903 243.469 46.7972 245.694C44.5275 247.843 43.4062 250.821 43.4333 254.629C43.4603 258.437 44.6242 261.438 46.9248 263.63C49.1487 265.747 52.3171 266.791 56.43 266.762L91.0464 266.516L91.1853 286.052L27.4363 286.505L27.2973 266.969L35.2945 266.912C32.6147 264.951 30.5018 262.376 28.9557 259.188C27.3336 256.001 26.5081 252.388 26.4794 248.352C26.4453 243.553 27.4431 239.281 29.473 235.534C31.5023 231.712 34.4135 228.72 38.2065 226.561C34.6873 224.377 31.8098 221.389 29.5739 217.596C27.3381 213.804 26.2042 209.661 26.1722 205.167ZM56.9949 105.253C58.8229 105.24 60.7278 105.34 62.7097 105.555L63.0241 149.768C66.9825 149.435 70.0201 148.157 72.137 145.933C74.1771 143.633 75.1856 140.846 75.1623 137.571C75.1276 132.696 73.0471 129.322 68.9207 127.447L68.7728 106.654C72.9694 107.691 76.7533 109.606 80.1246 112.4C83.4953 115.118 86.1476 118.565 88.0815 122.741C90.0153 126.916 91.0007 131.593 91.0375 136.772C91.082 143.018 89.7887 148.587 87.1576 153.481C84.5265 158.374 80.7454 162.209 75.8143 164.987C70.8831 167.764 65.1045 169.176 58.4782 169.223C51.852 169.27 46.054 167.978 41.0844 165.348C36.1143 162.641 32.279 158.86 29.5786 154.005C26.8782 149.149 25.5055 143.56 25.4605 137.239C25.4167 131.07 26.6724 125.577 29.2279 120.76C31.7833 115.943 35.4507 112.185 40.2301 109.485C45.0089 106.709 50.5972 105.298 56.9949 105.253ZM51.9961 125.282C48.6449 125.306 45.9873 126.467 44.0233 128.766C42.0593 131.065 41.0895 133.929 41.1138 137.356C41.1371 140.631 42.1089 143.404 44.0293 145.676C45.9491 147.871 48.6627 149.223 52.17 149.731L51.9961 125.282ZM25.1135 56.3272C25.0604 48.8632 27.4554 42.9051 32.2985 38.4529C37.0648 33.9251 43.6751 31.6311 52.1293 31.571L89.3734 31.3061L89.5115 50.7279L54.8951 50.9741C50.6299 51.0044 47.3246 52.1324 44.9793 54.3579C42.6339 56.5834 41.4745 59.5622 41.501 63.2942C41.5276 67.0263 42.7293 69.9883 45.106 72.1802C47.4828 74.3722 50.8038 75.453 55.069 75.4226L89.6854 75.1764L89.8244 94.7124L26.0753 95.1659L25.9363 75.6299L34.3905 75.5697C31.5584 73.6095 29.3307 70.9595 27.7074 67.6197C26.008 64.2804 25.1433 60.5162 25.1135 56.3272ZM72.4585 -17.6821L89.0241 -17.7999L89.0948 -7.86054C89.1452 -0.777311 87.4707 4.75675 84.0716 8.74164C80.5962 12.7271 74.9361 14.7477 67.0912 14.8035L41.7287 14.9839L41.7839 22.7526L25.5611 22.868L25.5058 15.0993L9.96839 15.2098L9.82943 -4.3262L25.3668 -4.43671L25.2758 -17.2322L41.4987 -17.3476L41.5897 -4.55211L67.1807 -4.73413C69.0848 -4.74768 70.4525 -5.21441 71.2838 -6.13433C72.1151 -7.05426 72.5232 -8.58051 72.508 -10.7131L72.4585 -17.6821Z" fill="white" fill-opacity="0.2"/>
</svg>
