<svg width="16" height="16" viewBox="0 0 16 16" fill="none" xmlns="http://www.w3.org/2000/svg">
<path d="M15.9329 6.18033C15.8564 5.94567 15.7157 5.73652 15.5264 5.57602C15.3371 5.41553 15.1066 5.30995 14.8604 5.27098L10.9968 4.65017L9.20569 1.209C9.0916 0.989927 8.91868 0.806161 8.70591 0.677862C8.49314 0.549563 8.24874 0.481689 7.99952 0.481689C7.7503 0.481689 7.5059 0.549563 7.29313 0.677862C7.08036 0.806161 6.90744 0.989927 6.79335 1.209L5.00229 4.65017L1.13872 5.27098C0.892744 5.31056 0.662547 5.41637 0.473388 5.57679C0.284229 5.73721 0.143418 5.94605 0.0664042 6.18039C-0.0106095 6.41473 -0.0208496 6.66552 0.0368076 6.90523C0.0944647 7.14495 0.217791 7.36433 0.393255 7.53931L3.14992 10.2869L2.55325 14.1117C2.51497 14.3553 2.54538 14.6046 2.64114 14.8323C2.7369 15.0599 2.8943 15.257 3.09603 15.4019C3.29776 15.5468 3.536 15.6339 3.78456 15.6536C4.03311 15.6733 4.28235 15.6249 4.50485 15.5136L7.99952 13.7705L11.4943 15.5136C11.7168 15.6247 11.966 15.6729 12.2144 15.6531C12.4629 15.6333 12.701 15.5462 12.9027 15.4014C13.1044 15.2565 13.2617 15.0595 13.3576 14.832C13.4534 14.6045 13.4839 14.3552 13.4459 14.1117L12.8492 10.2869L15.6059 7.53931C15.7819 7.36467 15.9056 7.14529 15.9633 6.90543C16.021 6.66558 16.0105 6.41462 15.9329 6.18033ZM14.8485 6.79662L11.7129 9.9219L12.3917 14.2725C12.4001 14.3247 12.3937 14.378 12.3733 14.4268C12.3529 14.4756 12.3193 14.5178 12.2761 14.5488C12.2329 14.5798 12.1819 14.5984 12.1287 14.6025C12.0755 14.6066 12.0222 14.5961 11.9747 14.5721L7.99952 12.5893L4.02432 14.5721C3.9768 14.5961 3.92349 14.6067 3.87028 14.6026C3.81708 14.5985 3.76606 14.5799 3.72289 14.5489C3.67971 14.5179 3.64606 14.4756 3.62567 14.4269C3.60528 14.3781 3.59894 14.3247 3.60735 14.2726L4.28619 9.9219L1.15055 6.79659C1.11311 6.75919 1.0868 6.71231 1.0745 6.66111C1.06221 6.6099 1.06441 6.55634 1.08086 6.50629C1.0973 6.45623 1.12737 6.41162 1.16775 6.37734C1.20814 6.34306 1.25729 6.32043 1.30982 6.31192L5.70452 5.60579L7.74182 1.69159C7.76618 1.64477 7.80312 1.60549 7.84858 1.57806C7.89404 1.55064 7.94627 1.53613 7.99952 1.53613C8.05277 1.53613 8.105 1.55064 8.15046 1.57806C8.19592 1.60549 8.23286 1.64477 8.25722 1.69159L10.2945 5.60579L14.6892 6.31192C14.7417 6.32043 14.7909 6.34306 14.8313 6.37734C14.8717 6.41162 14.9017 6.45623 14.9182 6.50629C14.9346 6.55634 14.9368 6.6099 14.9245 6.66111C14.9122 6.71231 14.8859 6.75919 14.8485 6.79659L14.8485 6.79662Z" fill="#111111"/>
</svg>
