<svg width="156" height="50" viewBox="0 0 156 50" fill="none" xmlns="http://www.w3.org/2000/svg">
<path d="M80.303 29.6577H71.5027H71.5018C66.649 29.6577 62.7 25.7182 62.7 20.8735C62.7 16.0306 66.649 12.0898 71.5018 12.0898C76.355 12.0898 80.303 16.0306 80.303 20.8735V29.6577ZM71.5018 7.40475C64.0476 7.40475 58.0044 13.4356 58.0044 20.8735C58.0044 28.3126 64.0476 34.3433 71.5018 34.3433H71.5027H84.9976V20.8735C84.9976 13.4356 78.9557 7.40475 71.5018 7.40475Z" fill="#686868"/>
<path d="M150.833 29.6577H142.032C137.178 29.6577 133.23 25.7182 133.23 20.8735C133.23 16.0306 137.178 12.0898 142.032 12.0898C146.885 12.0898 150.833 16.0306 150.833 20.8735V29.6577ZM142.032 7.40475C134.578 7.40475 128.535 13.4356 128.535 20.8735C128.535 28.3126 134.578 34.3433 142.032 34.3433H155.528V20.8735C155.528 13.4356 149.485 7.40475 142.032 7.40475Z" fill="#686868"/>
<path d="M101.134 7.40654C93.708 7.43779 87.6978 13.4551 87.6978 20.8735V34.3433C90.2909 34.3433 92.3921 32.2454 92.3921 29.6577H92.4031L92.3978 20.8735H92.3921C92.3921 16.0502 96.3091 12.1237 101.134 12.0915V12.0898H104.215C106.808 12.0898 108.91 9.99195 108.91 7.40475H101.134V7.40654Z" fill="#686868"/>
<path d="M127.076 29.6578H123.996V29.6559C119.17 29.6233 115.254 25.697 115.254 20.8736H115.259L115.263 12.09H119.935C122.528 12.09 124.63 9.99216 124.63 7.40499H119.935H115.265L115.266 4.68496H115.254C115.254 2.09612 113.153 6.48499e-05 110.559 6.48499e-05V20.8736C110.559 28.2923 116.569 34.3096 123.996 34.3416V34.3433H131.771C131.771 31.7553 129.67 29.6578 127.076 29.6578Z" fill="#686868"/>
<path d="M6.45953 43.3723C4.20111 40.7827 3.37214 36.6169 6.45595 33.7476C7.98637 32.3233 10.1339 31.7109 12.1959 32.1109C13.5632 32.3769 14.8268 33.0187 15.7403 34.073C18.8046 37.6062 15.8098 42.2564 18.264 47.2102C18.7642 48.2177 19.3532 49.1669 20.0777 50C15.7324 48.8629 9.12695 46.432 6.45953 43.3723Z" fill="#686868"/>
<path d="M2.18817 17.4134C3.9584 14.4726 7.67223 12.3979 11.3595 14.4368C13.19 15.4512 14.4386 17.3002 14.6942 19.3813C14.8638 20.7589 14.6413 22.1564 13.9181 23.348C11.498 27.3484 6.14264 25.9458 2.18032 29.8045C1.37135 30.5902 0.650611 31.4441 0.0809748 32.3899C-0.17729 27.9116 0.0952635 20.8917 2.18817 17.4134Z" fill="#686868"/>
<path d="M25.6184 5.28805C28.9697 6.05891 32.0918 8.94294 31.289 13.07C30.8888 15.1234 29.5109 16.8792 27.6079 17.765C26.3461 18.3515 24.9476 18.5734 23.5868 18.2552C19.0262 17.193 18.7108 11.678 13.8083 9.10955C12.8091 8.58645 11.7723 8.16508 10.6953 7.91517C14.8834 6.28552 21.6577 4.37745 25.6184 5.28805Z" fill="#686868"/>
<path d="M44.4764 23.7873C44.7772 27.2039 42.9952 31.0608 38.8131 31.5745C36.7315 31.8275 34.6346 31.0654 33.2031 29.5308C32.2531 28.515 31.6093 27.254 31.4921 25.8655C31.0938 21.21 36.253 19.2047 37.1868 13.7585C37.3762 12.6491 37.4566 11.5349 37.3618 10.4343C40.208 13.9056 44.1209 19.7465 44.4764 23.7873Z" fill="#686868"/>
<path d="M32.4619 47.3784C29.2964 48.7214 25.0686 48.2204 23.2916 44.4101C22.4059 42.5152 22.4827 40.2864 23.5053 38.4542C24.1803 37.2366 25.1833 36.2374 26.4691 35.6977C30.7804 33.8814 34.2882 38.1588 39.7667 37.3602C40.8838 37.1965 41.9681 36.9321 42.9878 36.5014C40.5615 40.2749 36.2028 45.7938 32.4619 47.3784Z" fill="#686868"/>
<path d="M60.2044 40.8755H58.7891V40.3661H62.2342V40.8755H60.8116V45.0098H60.2044V40.8755Z" fill="#686868"/>
<path d="M66.2073 42.8315H64.405V44.5076H66.4217V45.0098H63.7979V40.3661H66.3173V40.8684H64.405V42.336H66.2073V42.8315Z" fill="#686868"/>
<path d="M70.8052 45.0107L70.2037 43.9843C69.9619 43.5922 69.817 43.3367 69.6722 43.0679H69.6581C69.527 43.3367 69.3884 43.5852 69.1545 43.9915L68.5955 45.0107H67.9053L69.3258 42.6616L67.9595 40.367H68.657L69.2718 41.4549C69.4437 41.7579 69.575 41.9932 69.7001 42.241H69.7208C69.8509 41.9649 69.9689 41.7519 70.1422 41.4549L70.7699 40.367H71.4675L70.052 42.6271L71.5015 45.0107H70.8052Z" fill="#686868"/>
<path d="M73.6286 40.3661V42.3089H75.8789V40.3661H76.4862V45.0098H75.8789V42.8315H73.6286V45.0098H73.0215V40.3661H73.6286Z" fill="#686868"/>
<path d="M78.541 42.7097C78.541 43.7078 79.0795 44.5971 80.0325 44.5971C80.9852 44.5971 81.5237 43.722 81.5237 42.6677C81.5237 41.7385 81.0405 40.7736 80.0406 40.7736C79.0385 40.7736 78.541 41.6965 78.541 42.7097ZM82.1596 42.6403C82.1596 44.2319 81.1853 45.0862 79.9974 45.0862C78.7626 45.0862 77.9062 44.1282 77.9062 42.7232C77.9062 41.2486 78.8178 40.2844 80.0602 40.2844C81.3379 40.2844 82.1596 41.2558 82.1596 42.6403Z" fill="#686868"/>
<path d="M86.6692 40.3672V45.0107H86.0611V40.8696H84.5296V42.275C84.5296 43.282 84.4804 44.405 83.8313 44.8451C83.6582 44.9558 83.382 45.0662 83.1136 45.0662L83.0381 44.5832C83.2241 44.5565 83.417 44.4459 83.5275 44.3356C83.9009 43.9773 83.9351 43.068 83.9351 42.323V40.3672H86.6692Z" fill="#686868"/>
<path d="M88.6422 42.7097C88.6422 43.7078 89.1805 44.5971 90.1333 44.5971C91.086 44.5971 91.6244 43.722 91.6244 42.6677C91.6244 41.7385 91.1415 40.7736 90.1394 40.7736C89.1394 40.7736 88.6422 41.6965 88.6422 42.7097ZM92.2596 42.6403C92.2596 44.2319 91.2871 45.0862 90.0991 45.0862C88.8627 45.0862 88.0068 44.1282 88.0068 42.7232C88.0068 41.2486 88.9178 40.2844 90.1609 40.2844C91.438 40.2844 92.2596 41.2558 92.2596 42.6403Z" fill="#686868"/>
<path d="M95.9665 40.3661V40.8685H94.0958V45.0098H93.4888V40.3661H95.9665Z" fill="#686868"/>
<path d="M97.9163 40.3661V42.322C97.9163 43.0527 97.9022 43.6663 97.8612 44.2862L97.8808 44.2938C98.1093 43.8105 98.3996 43.3078 98.737 42.757L100.244 40.3661H100.844V45.0098H100.278V43.0325C100.278 42.2811 100.284 41.7303 100.333 41.1436L100.311 41.1366C100.084 41.6475 99.7669 42.1846 99.4488 42.6948L97.9915 45.0098H97.3501V40.3661H97.9163Z" fill="#686868"/>
<path d="M104.882 40.8564C104.778 40.8286 104.586 40.8011 104.309 40.8011C103.722 40.8011 103.217 41.0222 103.217 41.6621C103.217 42.2199 103.708 42.5443 104.371 42.5443C104.57 42.5443 104.764 42.5443 104.882 42.5301V40.8564ZM102.354 45.0107C102.43 44.8875 102.492 44.7416 102.548 44.5905C102.747 44.0604 102.865 43.4125 103.245 43.0336C103.356 42.9241 103.493 42.8399 103.639 42.792V42.7791C103.059 42.6816 102.61 42.2679 102.61 41.6355C102.61 41.2288 102.775 40.9043 103.039 40.6906C103.328 40.4573 103.784 40.3323 104.371 40.3323C104.764 40.3323 105.178 40.3675 105.482 40.4289V45.0107H104.882V42.9985H104.433C104.15 42.9985 103.936 43.0612 103.769 43.2268C103.446 43.5502 103.321 44.2322 103.156 44.6733C103.106 44.7903 103.066 44.8875 103.004 45.0107H102.354Z" fill="#686868"/>
<path d="M110.256 40.3671L111.18 42.3586C111.298 42.6334 111.409 42.9025 111.512 43.1719H111.533C111.616 42.9364 111.706 42.6679 111.816 42.3371L112.549 40.3671H113.183L112.202 42.7654C111.954 43.3854 111.664 44.095 111.333 44.5217C111.036 44.9005 110.698 45.094 110.284 45.094C110.125 45.094 110.02 45.0806 109.945 45.0524L110 44.564C110.055 44.5773 110.125 44.5835 110.228 44.5835C110.705 44.5835 110.988 44.1216 111.14 43.792C111.187 43.6887 111.174 43.6191 111.119 43.5088L109.572 40.3671H110.256Z" fill="#686868"/>
<path d="M117.796 40.3661V45.0098H117.189V40.8685H115.027V45.0098H114.42V40.3661H117.796Z" fill="#686868"/>
<path d="M120.236 42.6618C120.368 42.6959 120.533 42.7099 120.733 42.7099C121.458 42.7099 121.9 42.3516 121.9 41.7246C121.9 41.1043 121.458 40.8081 120.803 40.8081C120.54 40.8081 120.34 40.8285 120.236 40.8564V42.6618ZM119.636 40.4214C119.926 40.3732 120.306 40.3323 120.788 40.3323C121.383 40.3323 121.818 40.4698 122.094 40.7185C122.342 40.9385 122.501 41.2771 122.501 41.6902C122.501 42.1101 122.377 42.4411 122.142 42.6816C121.818 43.0203 121.306 43.1923 120.72 43.1923C120.54 43.1923 120.374 43.1851 120.236 43.15V45.0107H119.636V40.4214Z" fill="#686868"/>
<path d="M126.037 43.0802L125.574 41.7439C125.47 41.4404 125.402 41.1655 125.332 40.896H125.319C125.249 41.1655 125.18 41.4539 125.083 41.7374L124.629 43.0802H126.037ZM124.503 43.5491L124.02 45.0098H123.399L124.988 40.3661H125.705L127.292 45.0098H126.651L126.154 43.5491H124.503Z" fill="#686868"/>
<path d="M129.439 44.5558C129.562 44.5764 129.728 44.5827 129.943 44.5827C130.564 44.5827 131.137 44.3559 131.137 43.6807C131.137 43.0529 130.592 42.7841 129.936 42.7841H129.439V44.5558ZM129.439 42.3362H129.983C130.611 42.3362 130.985 41.9987 130.985 41.5501C130.985 41.0139 130.577 40.7929 129.97 40.7929C129.694 40.7929 129.535 40.814 129.439 40.834V42.3362ZM128.838 40.4346C129.101 40.372 129.522 40.331 129.936 40.331C130.536 40.331 130.923 40.4346 131.206 40.669C131.447 40.8482 131.6 41.1243 131.6 41.489C131.6 41.9441 131.295 42.3362 130.812 42.5091V42.5291C131.254 42.6325 131.771 42.9977 131.771 43.6878C131.771 44.0871 131.613 44.3972 131.372 44.6185C131.053 44.914 130.529 45.0515 129.77 45.0515C129.356 45.0515 129.038 45.0249 128.838 44.996V40.4346Z" fill="#686868"/>
<path d="M136.398 40.3672V45.0107H135.79V40.8696H134.257V42.275C134.257 43.282 134.208 44.405 133.559 44.8451C133.387 44.9558 133.111 45.0662 132.842 45.0662L132.766 44.5832C132.952 44.5565 133.145 44.4459 133.256 44.3356C133.629 43.9773 133.664 43.068 133.664 42.323V40.3672H136.398Z" fill="#686868"/>
<path d="M140.411 42.8315H138.608V44.5076H140.624V45.0098H138.001V40.3661H140.522V40.8684H138.608V42.336H140.411V42.8315Z" fill="#686868"/>
<path d="M142.92 40.3661V42.3089H145.17V40.3661H145.777V45.0098H145.17V42.8315H142.92V45.0098H142.312V40.3661H142.92Z" fill="#686868"/>
<path d="M148.049 40.3661V42.322C148.049 43.0527 148.035 43.6663 147.994 44.2862L148.015 44.2938C148.242 43.8105 148.533 43.3078 148.87 42.757L150.377 40.3661H150.977V45.0098H150.411V43.0325C150.411 42.2811 150.417 41.7303 150.466 41.1436L150.444 41.1366C150.218 41.6475 149.9 42.1846 149.582 42.6948L148.125 45.0098H147.483V40.3661H148.049Z" fill="#686868"/>
<path d="M154.925 40.8564C154.821 40.8286 154.627 40.8011 154.351 40.8011C153.765 40.8011 153.261 41.0222 153.261 41.6621C153.261 42.2199 153.751 42.5443 154.414 42.5443C154.615 42.5443 154.808 42.5443 154.925 42.5301V40.8564ZM152.397 45.0107C152.473 44.8875 152.536 44.7416 152.591 44.5905C152.791 44.0604 152.909 43.4125 153.289 43.0336C153.399 42.9241 153.537 42.8399 153.682 42.792V42.7791C153.102 42.6816 152.654 42.2679 152.654 41.6355C152.654 41.2288 152.819 40.9043 153.081 40.6906C153.372 40.4573 153.826 40.3323 154.414 40.3323C154.808 40.3323 155.222 40.3675 155.526 40.4289V45.0107H154.925V42.9985H154.476C154.192 42.9985 153.979 43.0612 153.814 43.2268C153.489 43.5502 153.365 44.2322 153.198 44.6733C153.15 44.7903 153.108 44.8875 153.047 45.0107H152.397Z" fill="#686868"/>
</svg>
