<svg width="80" height="80" viewBox="0 0 80 80" fill="none" xmlns="http://www.w3.org/2000/svg">
<path d="M66.1155 8.35938V71.6406C66.1155 76.25 62.3702 80 57.7671 80H22.1937C17.5905 80 13.8452 76.25 13.8452 71.6406V8.35938C13.8452 3.75 17.5905 0 22.1937 0H57.7671C62.3702 0 66.1155 3.75 66.1155 8.35938Z" fill="#56788B"/>
<path d="M66.1155 8.35938V71.6406C66.1155 76.25 62.3702 80 57.7671 80H54.6421C59.2452 80 62.9905 76.25 62.9905 71.6406V8.35938C62.9905 3.75 59.2452 0 54.6421 0H57.7671C62.3702 0 66.1155 3.75 66.1155 8.35938Z" fill="#415E6F"/>
<path d="M61.4347 8.16562V71.8344C61.4347 73.8812 59.7722 75.5469 57.7269 75.5469H22.2347C20.1894 75.5469 18.5269 73.8812 18.5269 71.8344V8.16562C18.5269 6.11875 20.1894 4.45312 22.2347 4.45312H25.9394C26.4472 4.45312 26.8987 4.78125 27.055 5.26563L27.9722 8.11406C28.2003 8.82188 28.8503 9.29688 29.5925 9.29688H50.369C51.1097 9.29688 51.7612 8.82188 51.9894 8.11406L52.9065 5.26563C53.0628 4.78125 53.5128 4.45312 54.0222 4.45312H57.7269C59.7722 4.45312 61.4347 6.11875 61.4347 8.16562Z" fill="url(#paint0_linear)"/>
<path d="M61.4344 8.16562V71.8344C61.4344 73.8812 59.7719 75.5469 57.7266 75.5469H54.6016C56.6469 75.5469 58.3094 73.8812 58.3094 71.8344V8.16562C58.3094 6.11875 56.6469 4.45312 54.6016 4.45312H57.7266C59.7719 4.45312 61.4344 6.11875 61.4344 8.16562Z" fill="#BAE1E5"/>
<path d="M46.3266 3.43517H33.6343C32.9871 3.43517 32.4624 3.95986 32.4624 4.60704C32.4624 5.25423 32.9871 5.77892 33.6343 5.77892H46.3266C46.9738 5.77892 47.4985 5.25423 47.4985 4.60704C47.4985 3.95986 46.9738 3.43517 46.3266 3.43517Z" fill="#415E6F"/>
<path d="M46.3266 67.9254H33.6343C32.9871 67.9254 32.4624 68.45 32.4624 69.0972C32.4624 69.7444 32.9871 70.2691 33.6343 70.2691H46.3266C46.9738 70.2691 47.4985 69.7444 47.4985 69.0972C47.4985 68.45 46.9738 67.9254 46.3266 67.9254Z" fill="#56788B"/>
<path d="M33.7414 37.7089H30.4014C29.7542 37.7089 29.2295 38.2336 29.2295 38.8808C29.2295 39.5279 29.7542 40.0526 30.4014 40.0526H33.7414C34.3886 40.0526 34.9132 39.5279 34.9132 38.8808C34.9132 38.2336 34.3886 37.7089 33.7414 37.7089Z" fill="#56788B"/>
<path d="M36.6401 41.5672C35.9929 41.5672 35.4683 42.0918 35.4683 42.739V48.3848C35.4683 49.032 35.9929 49.5567 36.6401 49.5567C37.2873 49.5567 37.812 49.032 37.812 48.3848V42.739C37.812 42.0918 37.2873 41.5672 36.6401 41.5672Z" fill="#56788B"/>
<path d="M35.1634 34.0387C33.6845 34.2378 32.5693 35.5142 32.5693 37.0076V40.7537C32.5693 42.2472 33.6845 43.5236 35.1634 43.7226L48.0786 45.552V32.3198L35.1634 34.0387Z" fill="#4DD4F7"/>
<path d="M49.4814 33.412V44.3495C49.4814 45.6439 48.4336 46.6933 47.1411 46.6933C45.8486 46.6933 44.8008 45.6439 44.8008 44.3495V33.412C44.8008 32.1176 45.8486 31.0683 47.1411 31.0683C48.4336 31.0683 49.4814 32.1176 49.4814 33.412Z" fill="#56788B"/>
<path d="M26.8359 18.8594V30.675C26.8359 32.65 25.2297 34.2578 23.2562 34.2578H8.05938L1.88125 38.9578C1.67344 39.1172 1.42344 39.1969 1.17188 39.1969C0.99375 39.1969 0.815625 39.1578 0.651563 39.075C0.253125 38.8781 0 38.4703 0 38.025V18.8594C0 16.8844 1.60625 15.2765 3.57969 15.2765H23.2562C25.2297 15.2765 26.8359 16.8844 26.8359 18.8594Z" fill="url(#paint1_linear)"/>
<path d="M26.836 18.8594V30.675C26.836 32.65 25.2298 34.2578 23.2563 34.2578H20.1313C22.1048 34.2578 23.711 32.65 23.711 30.675V18.8594C23.711 16.8844 22.1048 15.2765 20.1313 15.2765H23.2563C25.2298 15.2765 26.836 16.8844 26.836 18.8594Z" fill="#ED2061"/>
<path d="M19.6586 20.8507H7.17725C6.53006 20.8507 6.00537 21.3753 6.00537 22.0225C6.00537 22.6697 6.53006 23.1944 7.17725 23.1944H19.6586C20.3058 23.1944 20.8305 22.6697 20.8305 22.0225C20.8305 21.3753 20.306 20.8507 19.6586 20.8507Z" fill="white"/>
<path d="M18.0987 26.1632H7.17725C6.53006 26.1632 6.00537 26.6878 6.00537 27.335C6.00537 27.9822 6.53006 28.5069 7.17725 28.5069H18.0985C18.7457 28.5069 19.2704 27.9822 19.2704 27.335C19.2704 26.6878 18.7458 26.1632 18.0987 26.1632Z" fill="white"/>
<path d="M79.9999 57.1406C79.9999 59.9266 77.7358 62.1938 74.953 62.1938H57.6921L55.0546 65.8344C54.8343 66.1391 54.4812 66.3187 54.1062 66.3187C53.7296 66.3187 53.3765 66.1391 53.1562 65.8344L50.5187 62.1938H50.0796C47.2968 62.1938 45.0327 59.9266 45.0327 57.1406C45.0327 54.3547 47.2968 52.0891 50.0796 52.0891H74.953C77.7358 52.0891 79.9999 54.3547 79.9999 57.1406Z" fill="url(#paint2_linear)"/>
<path d="M80 57.1406C80 59.9266 77.7359 62.1938 74.9531 62.1938H71.8281C74.6109 62.1938 76.875 59.9266 76.875 57.1406C76.875 54.3547 74.6109 52.0891 71.8281 52.0891H74.9531C77.7359 52.0891 80 54.3547 80 57.1406Z" fill="#FFBE4B"/>
<path d="M26.6748 57.7187H31.6972C32.3443 57.7187 32.869 57.194 32.869 56.5468C32.869 55.8997 32.3443 55.375 31.6972 55.375H26.6748C26.0276 55.375 25.5029 55.8997 25.5029 56.5468C25.5029 57.194 26.0276 57.7187 26.6748 57.7187Z" fill="#90ABBD"/>
<path d="M34.8175 60.8437H26.6748C26.0276 60.8437 25.5029 61.3684 25.5029 62.0156C25.5029 62.6628 26.0276 63.1875 26.6748 63.1875H34.8175C35.4646 63.1875 35.9893 62.6628 35.9893 62.0156C35.9893 61.3684 35.4646 60.8437 34.8175 60.8437Z" fill="#90ABBD"/>
<path d="M53.2411 21.7234H48.2188C47.5716 21.7234 47.0469 22.2481 47.0469 22.8953C47.0469 23.5425 47.5716 24.0672 48.2188 24.0672H53.2411C53.8883 24.0672 54.413 23.5425 54.413 22.8953C54.413 22.2481 53.8883 21.7234 53.2411 21.7234Z" fill="#90ABBD"/>
<path d="M54.4127 17.4265C54.4127 16.7793 53.888 16.2547 53.2408 16.2547H45.0981C44.451 16.2547 43.9263 16.7793 43.9263 17.4265C43.9263 18.0737 44.451 18.5984 45.0981 18.5984H53.2408C53.888 18.5984 54.4127 18.0737 54.4127 17.4265Z" fill="#90ABBD"/>
<defs>
<linearGradient id="paint0_linear" x1="18.5269" y1="43.7122" x2="61.4381" y2="44.0262" gradientUnits="userSpaceOnUse">
<stop stop-color="#E8E8FF"/>
<stop offset="0.463465" stop-color="white"/>
<stop offset="0.960919" stop-color="#F3F3FF"/>
</linearGradient>
<linearGradient id="paint1_linear" x1="-0.0485646" y1="24.8389" x2="26.7722" y2="24.8389" gradientUnits="userSpaceOnUse">
<stop stop-color="#EA3C5C"/>
<stop offset="0.988226" stop-color="#FED6B4"/>
</linearGradient>
<linearGradient id="paint2_linear" x1="76.0119" y1="59.0944" x2="50.5812" y2="59.0944" gradientUnits="userSpaceOnUse">
<stop stop-color="#FFE975"/>
<stop offset="1" stop-color="#FFFAF2"/>
</linearGradient>
</defs>
</svg>
