<svg width="80" height="80" viewBox="0 0 80 80" fill="none" xmlns="http://www.w3.org/2000/svg">
<path d="M70.625 4.6875L75.3125 0H42.1875C39.6028 0 37.5 2.10281 37.5 4.6875V56.25C37.5 58.8347 39.6028 60.9375 42.1875 60.9375H75.3125L70.625 56.25V4.6875Z" fill="url(#paint0_linear)"/>
<path d="M75.3125 60.9375C77.8906 60.9375 80 58.8281 80 56.25V49.2188H70.625V56.25C70.625 58.8281 72.7344 60.9375 75.3125 60.9375Z" fill="#FFB739"/>
<path d="M80 4.6875C80 2.10938 77.8906 0 75.3125 0C72.7344 0 70.625 2.10938 70.625 4.6875V11.7188H80V4.6875Z" fill="#FFB739"/>
<path d="M61.25 9.375H46.875V14.0625H61.25V9.375Z" fill="#233952"/>
<path d="M61.25 18.75H46.875V23.4375H61.25V18.75Z" fill="#233952"/>
<path d="M61.25 28.125H46.875V32.8125H61.25V28.125Z" fill="#233952"/>
<path d="M61.25 37.5H46.875V42.1875H61.25V37.5Z" fill="#233952"/>
<path d="M61.25 46.875H46.875V51.5625H61.25V46.875Z" fill="#233952"/>
<path d="M11.5625 70.625H0V50.7812L11.5625 46.0938V70.625Z" fill="#111111"/>
<path d="M9.375 50.7812V80H18.75V48.4375L9.375 50.7812Z" fill="url(#paint1_linear)"/>
<path d="M9.375 25C4.19734 25 0 29.1973 0 34.375V50.7812H9.375L17.1875 37.8906L9.375 25Z" fill="url(#paint2_linear)"/>
<path fill-rule="evenodd" clip-rule="evenodd" d="M21.0938 20.3125C15.4845 20.3125 10.9375 15.7653 10.9375 10.1562C10.9375 4.54719 15.4845 0 21.0938 0C26.703 0 31.25 4.54719 31.25 10.1562C31.25 15.7653 26.703 20.3125 21.0938 20.3125Z" fill="url(#paint3_linear)"/>
<path d="M23.4375 48.4375V80H32.8125V50.7812L23.4375 48.4375Z" fill="url(#paint4_linear)"/>
<path fill-rule="evenodd" clip-rule="evenodd" d="M20.0548 31.0889L18.75 25H9.375V50.7812H21.0938H32.8125V25H23.4375L20.0548 31.0889Z" fill="url(#paint5_linear)"/>
<path d="M23.4375 25H21.0938L19.5312 34.375L21.0938 43.75H23.4375V25Z" fill="#111111"/>
<path d="M21.0938 25H18.75V43.75H21.0938V25Z" fill="#09213D"/>
<defs>
<linearGradient id="paint0_linear" x1="71" y1="30" x2="43.5" y2="30" gradientUnits="userSpaceOnUse">
<stop stop-color="#FFE975"/>
<stop offset="1" stop-color="#FFFAF2"/>
</linearGradient>
<linearGradient id="paint1_linear" x1="14.0625" y1="89.4374" x2="14.0625" y2="55.9395" gradientUnits="userSpaceOnUse">
<stop stop-color="#0085F2"/>
<stop offset="1" stop-color="#003286"/>
</linearGradient>
<linearGradient id="paint2_linear" x1="8.59377" y1="58.49" x2="8.59377" y2="31.1278" gradientUnits="userSpaceOnUse">
<stop stop-color="#0085F2"/>
<stop offset="1" stop-color="#003286"/>
</linearGradient>
<linearGradient id="paint3_linear" x1="10.9007" y1="8.12008" x2="31.2018" y2="8.12008" gradientUnits="userSpaceOnUse">
<stop stop-color="#EA3C5C"/>
<stop offset="0.988226" stop-color="#FED6B4"/>
</linearGradient>
<linearGradient id="paint4_linear" x1="28.125" y1="89.4374" x2="28.125" y2="55.9395" gradientUnits="userSpaceOnUse">
<stop stop-color="#0085F2"/>
<stop offset="1" stop-color="#003286"/>
</linearGradient>
<linearGradient id="paint5_linear" x1="32.8122" y1="37.8907" x2="9.37473" y2="37.8907" gradientUnits="userSpaceOnUse">
<stop offset="2e-06" stop-color="#3BADEA"/>
<stop offset="1" stop-color="#4AFFC7"/>
</linearGradient>
</defs>
</svg>
