<svg width="48" height="12" viewBox="0 0 48 12" fill="none" xmlns="http://www.w3.org/2000/svg">
<path d="M10.6 0.747021V11.947H8.472L2.888 5.14702V11.947H0.328V0.747021H2.472L8.04 7.54702V0.747021H10.6ZM20.6259 9.54702H15.4259L14.4339 11.947H11.7779L16.7699 0.747021H19.3299L24.3379 11.947H21.6179L20.6259 9.54702ZM19.8099 7.57902L18.0339 3.29102L16.2579 7.57902H19.8099ZM30.3479 0.747021C31.3399 0.747021 32.1985 0.912354 32.9239 1.24302C33.6599 1.57369 34.2252 2.04302 34.6199 2.65102C35.0145 3.25902 35.2119 3.97902 35.2119 4.81102C35.2119 5.63235 35.0145 6.35235 34.6199 6.97102C34.2252 7.57902 33.6599 8.04835 32.9239 8.37902C32.1985 8.69902 31.3399 8.85902 30.3479 8.85902H28.0919V11.947H25.4999V0.747021H30.3479ZM30.2039 6.74702C30.9825 6.74702 31.5745 6.58169 31.9799 6.25102C32.3852 5.90969 32.5879 5.42969 32.5879 4.81102C32.5879 4.18169 32.3852 3.70169 31.9799 3.37102C31.5745 3.02969 30.9825 2.85902 30.2039 2.85902H28.0919V6.74702H30.2039ZM43.8759 9.54702H38.6759L37.6839 11.947H35.0279L40.0199 0.747021H42.5799L47.5879 11.947H44.8679L43.8759 9.54702ZM43.0599 7.57902L41.2839 3.29102L39.5079 7.57902H43.0599Z" fill="white"/>
</svg>
