<svg width="48" height="12" viewBox="0 0 48 12" fill="none" xmlns="http://www.w3.org/2000/svg">
<path d="M10.6 0.799999V12H8.472L2.888 5.2V12H0.328V0.799999H2.472L8.04 7.6V0.799999H10.6ZM20.6259 9.6H15.4259L14.4339 12H11.7779L16.7699 0.799999H19.3299L24.3379 12H21.6179L20.6259 9.6ZM19.8099 7.632L18.0339 3.344L16.2579 7.632H19.8099ZM30.3479 0.799999C31.3399 0.799999 32.1985 0.965333 32.9239 1.296C33.6599 1.62667 34.2252 2.096 34.6199 2.704C35.0145 3.312 35.2119 4.032 35.2119 4.864C35.2119 5.68533 35.0145 6.40533 34.6199 7.024C34.2252 7.632 33.6599 8.10133 32.9239 8.432C32.1985 8.752 31.3399 8.912 30.3479 8.912H28.0919V12H25.4999V0.799999H30.3479ZM30.2039 6.8C30.9825 6.8 31.5745 6.63467 31.9799 6.304C32.3852 5.96267 32.5879 5.48267 32.5879 4.864C32.5879 4.23467 32.3852 3.75467 31.9799 3.424C31.5745 3.08267 30.9825 2.912 30.2039 2.912H28.0919V6.8H30.2039ZM43.8759 9.6H38.6759L37.6839 12H35.0279L40.0199 0.799999H42.5799L47.5879 12H44.8679L43.8759 9.6ZM43.0599 7.632L41.2839 3.344L39.5079 7.632H43.0599Z" fill="#111111"/>
</svg>
