<svg width="86" height="312" viewBox="0 0 86 312" fill="none" xmlns="http://www.w3.org/2000/svg">
<path d="M84.8146 236.843L84.9581 257.026L34.0913 291.146L85.1982 290.782L85.3418 310.965L2.4849 311.555L2.34134 291.371L53.4442 257.25L2.10124 257.615L1.95767 237.432L84.8146 236.843ZM69.7079 170.737L69.9279 201.661L84.5988 206.514L84.7491 227.642L1.67899 198.252L1.51276 174.882L84.1564 144.313L84.3084 165.676L69.7079 170.737ZM54.1649 176.042L23.9043 186.526L54.3102 196.461L54.1649 176.042ZM27.4602 72.4422C32.2601 72.4081 36.6743 73.4783 40.703 75.653C44.653 77.8282 47.8639 81.1891 50.3356 85.7356C52.8074 90.282 54.0673 95.9388 54.1155 102.706L54.2044 115.217L83.9479 115.005L84.0915 135.188L1.23462 135.778L1.00207 103.084C0.955054 96.4739 2.05627 90.8791 4.30571 86.299C6.55516 81.719 9.67827 78.2737 13.6751 75.9633C17.6718 73.6528 22.2669 72.4791 27.4602 72.4422ZM38.0743 104.354C38.0469 100.499 37.1216 97.6331 35.2984 95.7575C33.4751 93.8819 30.9111 92.9559 27.6063 92.9794C24.3014 93.0029 21.7508 93.9653 19.9545 95.8667C18.1581 97.768 17.2737 100.647 17.3011 104.502L17.3792 115.479L38.1524 115.331L38.0743 104.354ZM68.565 10.0603L68.785 40.9841L83.456 45.8372L83.6062 66.9645L0.536106 37.5743L0.369878 14.2044L83.0135 -16.3645L83.1655 4.99891L68.565 10.0603ZM53.0221 15.3644L22.7615 25.8487L53.1673 35.7835L53.0221 15.3644Z" fill="white" fill-opacity="0.2"/>
</svg>
