<svg width="102" height="14" viewBox="0 0 102 14" fill="none" xmlns="http://www.w3.org/2000/svg">
<path d="M8.168 12.947L5.752 9.50702C5.45333 9.52835 5.21867 9.53902 5.048 9.53902H2.28V12.947H0.68V1.74702H5.048C6.49867 1.74702 7.64 2.09369 8.472 2.78702C9.304 3.48035 9.72 4.43502 9.72 5.65102C9.72 6.51502 9.50667 7.25102 9.08 7.85902C8.65333 8.46702 8.04533 8.90969 7.256 9.18702L9.912 12.947H8.168ZM5 8.17902C6.01333 8.17902 6.78667 7.96035 7.32 7.52302C7.85333 7.08569 8.12 6.46169 8.12 5.65102C8.12 4.84035 7.85333 4.22169 7.32 3.79502C6.78667 3.35769 6.01333 3.13902 5 3.13902H2.28V8.17902H5ZM19.745 8.75502C19.745 8.87235 19.7343 9.02702 19.713 9.21902H12.833C12.929 9.96569 13.2543 10.5684 13.809 11.027C14.3743 11.475 15.073 11.699 15.905 11.699C16.9183 11.699 17.7343 11.3577 18.353 10.675L19.201 11.667C18.817 12.115 18.337 12.4564 17.761 12.691C17.1957 12.9257 16.561 13.043 15.857 13.043C14.961 13.043 14.1663 12.8617 13.473 12.499C12.7797 12.1257 12.241 11.6084 11.857 10.947C11.4837 10.2857 11.297 9.53902 11.297 8.70702C11.297 7.88569 11.4783 7.14435 11.841 6.48302C12.2143 5.82169 12.721 5.30969 13.361 4.94702C14.0117 4.57369 14.7423 4.38702 15.553 4.38702C16.3637 4.38702 17.0837 4.57369 17.713 4.94702C18.353 5.30969 18.849 5.82169 19.201 6.48302C19.5637 7.14435 19.745 7.90169 19.745 8.75502ZM15.553 5.68302C14.817 5.68302 14.1983 5.90702 13.697 6.35502C13.2063 6.80302 12.9183 7.38969 12.833 8.11502H18.273C18.1877 7.40035 17.8943 6.81902 17.393 6.37102C16.9023 5.91235 16.289 5.68302 15.553 5.68302ZM25.5739 13.043C24.7099 13.043 23.9365 12.8564 23.2539 12.483C22.5819 12.1097 22.0539 11.5977 21.6699 10.947C21.2859 10.2857 21.0939 9.53902 21.0939 8.70702C21.0939 7.87502 21.2859 7.13369 21.6699 6.48302C22.0539 5.82169 22.5819 5.30969 23.2539 4.94702C23.9365 4.57369 24.7099 4.38702 25.5739 4.38702C26.3419 4.38702 27.0245 4.54169 27.6219 4.85102C28.2299 5.16035 28.6992 5.60835 29.0299 6.19502L27.8619 6.94702C27.5952 6.54169 27.2645 6.23769 26.8699 6.03502C26.4752 5.83235 26.0379 5.73102 25.5579 5.73102C25.0032 5.73102 24.5019 5.85369 24.0539 6.09902C23.6165 6.34435 23.2699 6.69635 23.0139 7.15502C22.7685 7.60302 22.6459 8.12035 22.6459 8.70702C22.6459 9.30435 22.7685 9.83235 23.0139 10.291C23.2699 10.739 23.6165 11.0857 24.0539 11.331C24.5019 11.5764 25.0032 11.699 25.5579 11.699C26.0379 11.699 26.4752 11.5977 26.8699 11.395C27.2645 11.1924 27.5952 10.8884 27.8619 10.483L29.0299 11.219C28.6992 11.8057 28.2299 12.259 27.6219 12.579C27.0245 12.8884 26.3419 13.043 25.5739 13.043ZM32.4905 5.89102C32.7572 5.40035 33.1518 5.02702 33.6745 4.77102C34.1972 4.51502 34.8318 4.38702 35.5785 4.38702V5.87502C35.4932 5.86435 35.3758 5.85902 35.2265 5.85902C34.3945 5.85902 33.7385 6.10969 33.2585 6.61102C32.7892 7.10169 32.5545 7.80569 32.5545 8.72302V12.947H31.0185V4.46702H32.4905V5.89102ZM45.485 4.46702V12.947H44.029V11.667C43.7197 12.1044 43.309 12.4457 42.797 12.691C42.2957 12.9257 41.7463 13.043 41.149 13.043C40.0183 13.043 39.1277 12.7337 38.477 12.115C37.8263 11.4857 37.501 10.563 37.501 9.34702V4.46702H39.037V9.17102C39.037 9.99235 39.2343 10.6164 39.629 11.043C40.0237 11.459 40.589 11.667 41.325 11.667C42.1357 11.667 42.7757 11.4217 43.245 10.931C43.7143 10.4404 43.949 9.74702 43.949 8.85102V4.46702H45.485ZM48.4091 4.46702H49.9451V12.947H48.4091V4.46702ZM49.1771 2.83502C48.8785 2.83502 48.6278 2.73902 48.4251 2.54702C48.2331 2.35502 48.1371 2.12035 48.1371 1.84302C48.1371 1.56569 48.2331 1.33102 48.4251 1.13902C48.6278 0.936354 48.8785 0.835021 49.1771 0.835021C49.4758 0.835021 49.7211 0.931021 49.9131 1.12302C50.1158 1.30435 50.2171 1.53369 50.2171 1.81102C50.2171 2.09902 50.1158 2.34435 49.9131 2.54702C49.7211 2.73902 49.4758 2.83502 49.1771 2.83502ZM57.6459 12.451C57.4219 12.643 57.1445 12.7924 56.8139 12.899C56.4832 12.995 56.1419 13.043 55.7899 13.043C54.9365 13.043 54.2752 12.8137 53.8059 12.355C53.3365 11.8964 53.1019 11.2404 53.1019 10.387V5.73102H51.6619V4.46702H53.1019V2.61102H54.6379V4.46702H57.0699V5.73102H54.6379V10.323C54.6379 10.7817 54.7499 11.1337 54.9739 11.379C55.2085 11.6244 55.5392 11.747 55.9659 11.747C56.4352 11.747 56.8352 11.6137 57.1659 11.347L57.6459 12.451ZM70.1109 4.38702C71.1775 4.38702 72.0202 4.69635 72.6389 5.31502C73.2682 5.93369 73.5829 6.85102 73.5829 8.06702V12.947H72.0469V8.24302C72.0469 7.42169 71.8549 6.80302 71.4709 6.38702C71.0975 5.97102 70.5589 5.76302 69.8549 5.76302C69.0762 5.76302 68.4575 6.00835 67.9989 6.49902C67.5402 6.97902 67.3109 7.67235 67.3109 8.57902V12.947H65.7749V8.24302C65.7749 7.42169 65.5829 6.80302 65.1989 6.38702C64.8255 5.97102 64.2869 5.76302 63.5829 5.76302C62.8042 5.76302 62.1855 6.00835 61.7269 6.49902C61.2682 6.97902 61.0389 7.67235 61.0389 8.57902V12.947H59.5029V4.46702H60.9749V5.73102C61.2842 5.29369 61.6895 4.96302 62.1909 4.73902C62.6922 4.50435 63.2629 4.38702 63.9029 4.38702C64.5642 4.38702 65.1509 4.52035 65.6629 4.78702C66.1749 5.05369 66.5695 5.44302 66.8469 5.95502C67.1669 5.46435 67.6095 5.08035 68.1749 4.80302C68.7509 4.52569 69.3962 4.38702 70.1109 4.38702ZM84.12 8.75502C84.12 8.87235 84.1093 9.02702 84.088 9.21902H77.208C77.304 9.96569 77.6293 10.5684 78.184 11.027C78.7493 11.475 79.448 11.699 80.28 11.699C81.2933 11.699 82.1093 11.3577 82.728 10.675L83.576 11.667C83.192 12.115 82.712 12.4564 82.136 12.691C81.5707 12.9257 80.936 13.043 80.232 13.043C79.336 13.043 78.5413 12.8617 77.848 12.499C77.1547 12.1257 76.616 11.6084 76.232 10.947C75.8587 10.2857 75.672 9.53902 75.672 8.70702C75.672 7.88569 75.8533 7.14435 76.216 6.48302C76.5893 5.82169 77.096 5.30969 77.736 4.94702C78.3867 4.57369 79.1173 4.38702 79.928 4.38702C80.7387 4.38702 81.4587 4.57369 82.088 4.94702C82.728 5.30969 83.224 5.82169 83.576 6.48302C83.9387 7.14435 84.12 7.90169 84.12 8.75502ZM79.928 5.68302C79.192 5.68302 78.5733 5.90702 78.072 6.35502C77.5813 6.80302 77.2933 7.38969 77.208 8.11502H82.648C82.5627 7.40035 82.2693 6.81902 81.768 6.37102C81.2773 5.91235 80.664 5.68302 79.928 5.68302ZM90.7809 4.38702C91.8582 4.38702 92.7115 4.70169 93.3409 5.33102C93.9809 5.94969 94.3009 6.86169 94.3009 8.06702V12.947H92.7649V8.24302C92.7649 7.42169 92.5675 6.80302 92.1729 6.38702C91.7782 5.97102 91.2129 5.76302 90.4769 5.76302C89.6449 5.76302 88.9889 6.00835 88.5089 6.49902C88.0289 6.97902 87.7889 7.67235 87.7889 8.57902V12.947H86.2529V4.46702H87.7249V5.74702C88.0342 5.30969 88.4502 4.97369 88.9729 4.73902C89.5062 4.50435 90.1089 4.38702 90.7809 4.38702ZM101.912 12.451C101.688 12.643 101.41 12.7924 101.08 12.899C100.749 12.995 100.408 13.043 100.056 13.043C99.2022 13.043 98.5408 12.8137 98.0715 12.355C97.6022 11.8964 97.3675 11.2404 97.3675 10.387V5.73102H95.9275V4.46702H97.3675V2.61102H98.9035V4.46702H101.336V5.73102H98.9035V10.323C98.9035 10.7817 99.0155 11.1337 99.2395 11.379C99.4742 11.6244 99.8048 11.747 100.232 11.747C100.701 11.747 101.101 11.6137 101.432 11.347L101.912 12.451Z" fill="white"/>
</svg>
